<svg width="98" height="58" viewBox="0 0 98 58" fill="none" xmlns="http://www.w3.org/2000/svg">
<path d="M24.9153 2L35.4642 19.0495H14.3664L24.9153 2Z" fill="#D9D9D9" stroke="black" stroke-width="2" stroke-linejoin="round"/>
<path d="M71.9774 2L82.5263 19.0495H61.4285L71.9774 2Z" fill="#D9D9D9" stroke="black" stroke-width="2"/>
<rect y="30.8318" width="97.4463" height="4.9901" fill="#040404"/>
<mask id="path-4-inside-1_174_1365" fill="white">
<path d="M0.55365 15.8616H98V45.2477H0.55365V15.8616Z"/>
</mask>
<path d="M0.55365 15.8616H98V45.2477H0.55365V15.8616Z" fill="#D9D9D9"/>
<path d="M0.55365 15.8616V13.8616H-1.44635V15.8616H0.55365ZM98 15.8616H100V13.8616H98V15.8616ZM98 45.2477V47.2477H100V45.2477H98ZM0.55365 45.2477H-1.44635V47.2477H0.55365V45.2477ZM0.55365 17.8616H98V13.8616H0.55365V17.8616ZM96 15.8616V45.2477H100V15.8616H96ZM98 43.2477H0.55365V47.2477H98V43.2477ZM2.55365 45.2477V15.8616H-1.44635V45.2477H2.55365Z" fill="black" mask="url(#path-4-inside-1_174_1365)"/>
<path d="M33.8814 46.9109C33.8814 52.4843 29.37 57 23.8079 57C18.2459 57 13.7345 52.4843 13.7345 46.9109C13.7345 41.3375 18.2459 36.8218 23.8079 36.8218C29.37 36.8218 33.8814 41.3375 33.8814 46.9109Z" fill="#979191" stroke="black" stroke-width="2"/>
<path d="M79.8362 46.9109C79.8362 52.4843 75.3248 57 69.7627 57C64.2006 57 59.6893 52.4843 59.6893 46.9109C59.6893 41.3375 64.2006 36.8218 69.7627 36.8218C75.3248 36.8218 79.8362 41.3375 79.8362 46.9109Z" fill="#979191" stroke="black" stroke-width="2"/>
<rect x="0.55365" y="24.7327" width="96.339" height="2.77228" fill="black"/>
</svg>
