<svg width="26" height="26" viewBox="0 0 26 26" fill="none" xmlns="http://www.w3.org/2000/svg">
<circle cx="13" cy="13" r="12" stroke="white" stroke-width="2"/>
<path d="M13 12.3685C14.3953 12.3685 15.5263 11.2375 15.5263 9.84223C15.5263 8.44699 14.3953 7.31592 13 7.31592C11.6048 7.31592 10.4737 8.44699 10.4737 9.84223C10.4737 11.2375 11.6048 12.3685 13 12.3685Z" stroke="white" stroke-width="2" stroke-linecap="round" stroke-linejoin="round"/>
<path d="M18.0527 18.684V17.4208C18.0527 16.7508 17.7865 16.1082 17.3127 15.6345C16.8389 15.1607 16.1964 14.8945 15.5263 14.8945H10.4737C9.80368 14.8945 9.1611 15.1607 8.68733 15.6345C8.21355 16.1082 7.94739 16.7508 7.94739 17.4208V18.684" stroke="white" stroke-width="2" stroke-linecap="round" stroke-linejoin="round"/>
<circle cx="13" cy="13" r="12" fill="#629ACE" stroke="white" stroke-width="2"/>
<path d="M13 12.3685C14.3953 12.3685 15.5263 11.2375 15.5263 9.84223C15.5263 8.44699 14.3953 7.31592 13 7.31592C11.6048 7.31592 10.4737 8.44699 10.4737 9.84223C10.4737 11.2375 11.6048 12.3685 13 12.3685Z" fill="#629ACE" stroke="white" stroke-width="2" stroke-linecap="round" stroke-linejoin="round"/>
<path d="M18.0527 18.684V17.4208C18.0527 16.7508 17.7865 16.1082 17.3127 15.6345C16.8389 15.1607 16.1964 14.8945 15.5263 14.8945H10.4737C9.80368 14.8945 9.1611 15.1607 8.68733 15.6345C8.21355 16.1082 7.94739 16.7508 7.94739 17.4208V18.684" fill="#629ACE"/>
<path d="M18.0527 18.684V17.4208C18.0527 16.7508 17.7865 16.1082 17.3127 15.6345C16.8389 15.1607 16.1964 14.8945 15.5263 14.8945H10.4737C9.80368 14.8945 9.1611 15.1607 8.68733 15.6345C8.21355 16.1082 7.94739 16.7508 7.94739 17.4208V18.684" stroke="white" stroke-width="2" stroke-linecap="round" stroke-linejoin="round"/>
</svg>
