<svg width="92" height="60" viewBox="0 0 92 60" fill="none" xmlns="http://www.w3.org/2000/svg">
<rect x="1" y="1.40015" width="89.2" height="46.8" rx="14" fill="#D9D9D9" stroke="black" stroke-width="2"/>
<path d="M35 48.8C35 54.2124 30.6124 58.6 25.2 58.6C19.7876 58.6 15.4 54.2124 15.4 48.8C15.4 43.3876 19.7876 39 25.2 39C30.6124 39 35 43.3876 35 48.8Z" fill="#979191" stroke="black" stroke-width="2"/>
<path d="M75.8 48.8C75.8 54.2124 71.4124 58.6 66 58.6C60.5876 58.6 56.2 54.2124 56.2 48.8C56.2 43.3876 60.5876 39 66 39C71.4124 39 75.8 43.3876 75.8 48.8Z" fill="#979191" stroke="black" stroke-width="2"/>
<rect x="9.29999" y="16.0999" width="10.2" height="11" fill="#979191" stroke="black"/>
<rect x="68.5" y="15.2998" width="11.8" height="11.8" fill="#979191" stroke="black"/>
<rect x="42.9" y="16.0999" width="10.2" height="11" fill="#979191" stroke="black"/>
<rect x="26.1" y="16.0999" width="10.2" height="11" fill="#979191" stroke="black"/>
<rect y="34" width="91.2" height="2.4" fill="#151414"/>
<rect y="10.7998" width="91.2" height="2.4" fill="#151414"/>
</svg>
