<svg width="50" height="53" viewBox="0 0 50 53" fill="none" xmlns="http://www.w3.org/2000/svg">
<ellipse cx="25" cy="19.8773" rx="25" ry="4.56442" fill="black"/>
<path d="M24.537 0L35.3623 16.7853H13.7117L24.537 0Z" fill="#030303"/>
<ellipse cx="24.8458" cy="20.0246" rx="13.7346" ry="2.65031" fill="#D9D9D9"/>
<ellipse cx="24.9999" cy="35.5049" rx="18.2353" ry="17.4951" fill="#030303"/>
<ellipse cx="24.8529" cy="35.5048" rx="13.3824" ry="12.8641" fill="#D9D9D9"/>
<ellipse cx="24.8529" cy="34.6043" rx="13.3824" ry="11.9636" fill="white"/>
<ellipse cx="6.99119" cy="3.38244" rx="6.99119" ry="3.38244" transform="matrix(0.89262 -0.45081 0.550849 0.834605 27.0588 39.4927)" fill="black"/>
<ellipse cx="6.99119" cy="3.38244" rx="6.99119" ry="3.38244" transform="matrix(0.89262 0.45081 -0.550849 0.834605 10.4912 33.1893)" fill="black"/>
<ellipse cx="20.7353" cy="29.4587" rx="2.20588" ry="1.92961" fill="black"/>
<ellipse cx="29.2647" cy="29.4587" rx="2.20588" ry="1.92961" fill="black"/>
<rect width="4.14471" height="4.14471" transform="matrix(0.752667 -0.658401 0.752667 0.658401 21.4706 35.4036)" fill="#EB9719"/>
</svg>
