<svg width="67" height="95" viewBox="0 0 67 95" fill="none" xmlns="http://www.w3.org/2000/svg">
<line y1="-2" x2="29.8621" y2="-2" transform="matrix(0.57001 -0.821638 0.901354 0.433084 16.9341 95)" stroke="black" stroke-width="4"/>
<line y1="-2" x2="29.8621" y2="-2" transform="matrix(0.57001 0.821638 -0.901354 0.433084 33.8682 70.4641)" stroke="black" stroke-width="4"/>
<rect x="18.1298" y="89.9183" width="30.004" height="0.919098" fill="black" stroke="black" stroke-width="0.919098"/>
<rect x="2.66829" y="0.459549" width="62.3996" height="0.919098" fill="black" stroke="black" stroke-width="0.919098"/>
<rect x="2" y="10.5784" width="63" height="72.5915" rx="8" fill="white" stroke="black" stroke-width="4"/>
<path d="M27.3106 8.61008L33.868 2.11179L40.4253 8.61008H27.3106Z" fill="#FDFDFD" stroke="black" stroke-width="3"/>
<rect x="2.66829" y="61.7327" width="62.3996" height="0.919098" fill="black" stroke="black" stroke-width="0.919098"/>
<path d="M21.088 71.3833C21.088 73.205 19.2433 74.9788 16.566 74.9788C13.8888 74.9788 12.0441 73.205 12.0441 71.3833C12.0441 69.5617 13.8888 67.7878 16.566 67.7878C19.2433 67.7878 21.088 69.5617 21.088 71.3833Z" fill="white" stroke="black" stroke-width="2"/>
<path d="M55.6923 71.3833C55.6923 73.205 53.8475 74.9788 51.1703 74.9788C48.4931 74.9788 46.6483 73.205 46.6483 71.3833C46.6483 69.5617 48.4931 67.7878 51.1703 67.7878C53.8475 67.7878 55.6923 69.5617 55.6923 71.3833Z" fill="white" stroke="black" stroke-width="2"/>
<line y1="-1.5" x2="12.3145" y2="-1.5" transform="matrix(0.717461 -0.696598 0.814101 0.580723 31.6593 75.9788)" stroke="black" stroke-width="3"/>
<rect x="13.2803" y="22.9456" width="40.4396" height="38.053" fill="white" stroke="black" stroke-width="3"/>
</svg>
