<svg width="80" height="80" viewBox="0 0 80 80" fill="none" xmlns="http://www.w3.org/2000/svg">
<g filter="url(#filter0_d_108_118)">
<path d="M52.6316 54.2105V51.0526C52.6316 49.3776 51.9662 47.7711 50.7817 46.5867C49.5973 45.4022 47.9908 44.7368 46.3158 44.7368H33.6842C32.0091 44.7368 30.4027 45.4022 29.2183 46.5867C28.0338 47.7711 27.3684 49.3776 27.3684 51.0526V54.2105" stroke="black" stroke-width="2" stroke-linecap="round" stroke-linejoin="round"/>
<path d="M40.0001 38.4211C43.4882 38.4211 46.3158 35.5935 46.3158 32.1053C46.3158 28.6172 43.4882 25.7896 40.0001 25.7896C36.5119 25.7896 33.6843 28.6172 33.6843 32.1053C33.6843 35.5935 36.5119 38.4211 40.0001 38.4211Z" stroke="black" stroke-width="2" stroke-linecap="round" stroke-linejoin="round"/>
<circle cx="40" cy="40" r="29.5" stroke="black"/>
</g>
<defs>
<filter id="filter0_d_108_118" x="0" y="0" width="80" height="80" filterUnits="userSpaceOnUse" color-interpolation-filters="sRGB">
<feFlood flood-opacity="0" result="BackgroundImageFix"/>
<feColorMatrix in="SourceAlpha" type="matrix" values="0 0 0 0 0 0 0 0 0 0 0 0 0 0 0 0 0 0 127 0" result="hardAlpha"/>
<feOffset/>
<feGaussianBlur stdDeviation="5"/>
<feComposite in2="hardAlpha" operator="out"/>
<feColorMatrix type="matrix" values="0 0 0 0 0 0 0 0 0 0 0 0 0 0 0 0 0 0 0.3 0"/>
<feBlend mode="normal" in2="BackgroundImageFix" result="effect1_dropShadow_108_118"/>
<feBlend mode="normal" in="SourceGraphic" in2="effect1_dropShadow_108_118" result="shape"/>
</filter>
</defs>
</svg>
