<svg width="50" height="32" viewBox="0 0 50 32" fill="none" xmlns="http://www.w3.org/2000/svg">
<path d="M12.712 2L18.0941 11.1337H7.32993L12.712 2Z" fill="#D9D9D9" stroke="black" stroke-width="2" stroke-linejoin="round"/>
<path d="M36.7232 2L42.1053 11.1337H31.3412L36.7232 2Z" fill="#D9D9D9" stroke="black" stroke-width="2"/>
<path d="M12.7117 2H36.723V23.3861H12.7117V2Z" fill="#D9D9D9"/>
<rect y="17.4453" width="49.7175" height="2.67327" fill="#040404"/>
<rect x="1.28271" y="10.4258" width="47.7175" height="13.7426" fill="#D9D9D9" stroke="black" stroke-width="2"/>
<path d="M16.7965 26.0592C16.7965 28.8358 14.668 30.9998 12.1468 30.9998C9.62553 30.9998 7.49707 28.8358 7.49707 26.0592C7.49707 23.2827 9.62553 21.1187 12.1468 21.1187C14.668 21.1187 16.7965 23.2827 16.7965 26.0592Z" fill="#979191" stroke="black" stroke-width="2"/>
<path d="M40.2428 26.0592C40.2428 28.8358 38.1143 30.9998 35.5931 30.9998C33.0718 30.9998 30.9434 28.8358 30.9434 26.0592C30.9434 23.2827 33.0718 21.1187 35.5931 21.1187C38.1143 21.1187 40.2428 23.2827 40.2428 26.0592Z" fill="#979191" stroke="black" stroke-width="2"/>
<rect x="0.282715" y="14.1777" width="49.1525" height="1.48515" fill="black"/>
</svg>
