<svg width="55" height="55" viewBox="0 0 55 55" fill="none" xmlns="http://www.w3.org/2000/svg">
<ellipse cx="27.5" cy="20.6273" rx="27.5" ry="4.73667" fill="black"/>
<path d="M26.9907 0L38.8986 17.4187H15.0829L26.9907 0Z" fill="#030303"/>
<ellipse cx="27.3303" cy="20.7801" rx="15.108" ry="2.75032" fill="#D9D9D9"/>
<ellipse cx="27.5" cy="36.8448" rx="20.0588" ry="18.1553" fill="#030303"/>
<ellipse cx="27.3383" cy="36.8451" rx="14.7206" ry="13.3495" fill="#D9D9D9"/>
<ellipse cx="27.3383" cy="35.9107" rx="14.7206" ry="12.415" fill="white"/>
<ellipse cx="7.60386" cy="3.57529" rx="7.60386" ry="3.57529" transform="matrix(0.902768 -0.430128 0.573249 0.819381 29.7647 40.9829)" fill="black"/>
<ellipse cx="7.60386" cy="3.57529" rx="7.60386" ry="3.57529" transform="matrix(0.902768 0.430128 -0.573249 0.819381 11.5403 34.4419)" fill="black"/>
<ellipse cx="22.8088" cy="30.5703" rx="2.42647" ry="2.00243" fill="black"/>
<ellipse cx="32.1912" cy="30.5703" rx="2.42647" ry="2.00243" fill="black"/>
<rect width="4.44915" height="4.44915" transform="matrix(0.771281 -0.636494 0.771281 0.636494 23.6176 36.7393)" fill="#EB9719"/>
</svg>
