<svg width="131" height="136" viewBox="0 0 131 136" fill="none" xmlns="http://www.w3.org/2000/svg">
<ellipse cx="65.5" cy="51.006" rx="65.5" ry="11.7125" fill="black"/>
<path d="M64.287 0L92.6494 43.0717H35.9247L64.287 0Z" fill="#030303"/>
<ellipse cx="65.0958" cy="51.3839" rx="35.9846" ry="6.8008" fill="#D9D9D9"/>
<ellipse cx="65.5" cy="91.1068" rx="47.7765" ry="44.8932" fill="#030303"/>
<ellipse cx="65.1147" cy="91.1067" rx="35.0618" ry="33.0097" fill="#D9D9D9"/>
<ellipse cx="65.1147" cy="88.796" rx="35.0618" ry="30.699" fill="white"/>
<ellipse cx="18.2409" cy="8.73525" rx="18.2409" ry="8.73525" transform="matrix(0.896341 -0.443365 0.558841 0.829275 70.8943 101.34)" fill="black"/>
<ellipse cx="18.2409" cy="8.73525" rx="18.2409" ry="8.73525" transform="matrix(0.896341 0.443365 -0.558841 0.829275 27.4868 85.1651)" fill="black"/>
<ellipse cx="54.3263" cy="75.5922" rx="5.77941" ry="4.95146" fill="black"/>
<ellipse cx="76.6737" cy="75.5922" rx="5.77941" ry="4.95146" fill="black"/>
<rect width="10.7628" height="10.7628" transform="matrix(0.759408 -0.650615 0.759408 0.650615 56.253 90.847)" fill="#EB9719"/>
</svg>
