<svg width="131" height="136" viewBox="0 0 131 136" fill="none" xmlns="http://www.w3.org/2000/svg">
<ellipse cx="65.3237" cy="51.0059" rx="65.3237" ry="11.7125" fill="black"/>
<path d="M64.114 0L92.4 43.0717H35.828L64.114 0Z" fill="#030303"/>
<ellipse cx="64.9204" cy="51.3838" rx="35.8877" ry="6.80079" fill="#D9D9D9"/>
<ellipse cx="65.3239" cy="91.1066" rx="47.6479" ry="44.8932" fill="#030303"/>
<ellipse cx="64.9396" cy="91.1069" rx="34.9674" ry="33.0097" fill="#D9D9D9"/>
<ellipse cx="64.9396" cy="88.7962" rx="34.9674" ry="30.699" fill="white"/>
<ellipse cx="17.9337" cy="8.87488" rx="17.9337" ry="8.87488" transform="matrix(-0.843757 -0.536725 0.6529 -0.757444 30.2634 115.219)" fill="black"/>
<rect width="10.7461" height="10.7461" transform="matrix(0.758541 -0.651626 0.758541 0.651626 56.604 95.2183)" fill="#EB9719"/>
<ellipse cx="17.9337" cy="8.87488" rx="17.9337" ry="8.87488" transform="matrix(-0.843757 0.536725 0.6529 0.757444 119.411 82.5239)" fill="black"/>
<path d="M52.4663 75.072L58.74 81.5216C59.1736 81.9674 59.1736 82.6882 58.74 83.1292L57.6974 84.201C57.2638 84.6468 56.5626 84.6468 56.1336 84.201L51.682 79.6341L47.2351 84.2057C46.8015 84.6515 46.1003 84.6515 45.6713 84.2057L44.6241 83.134C44.1905 82.6882 44.1905 81.9674 44.6241 81.5263L50.8978 75.0768C51.3315 74.6262 52.0326 74.6262 52.4663 75.072Z" fill="black"/>
<path d="M77.0769 75.072L83.3506 81.5216C83.7842 81.9674 83.7842 82.6882 83.3506 83.1292L82.308 84.201C81.8744 84.6468 81.1732 84.6468 80.7442 84.201L76.2926 79.6341L71.8457 84.2057C71.4121 84.6515 70.7109 84.6515 70.2819 84.2057L69.2347 83.134C68.8011 82.6882 68.8011 81.9674 69.2347 81.5263L75.5084 75.0768C75.942 74.6262 76.6432 74.6262 77.0769 75.072Z" fill="black"/>
</svg>
