<svg width="35" height="35" viewBox="0 0 35 35" fill="none" xmlns="http://www.w3.org/2000/svg">
<ellipse cx="17.5" cy="13.1265" rx="17.5" ry="3.01424" fill="black"/>
<path d="M17.176 0L24.7537 11.0846H9.5983L17.176 0Z" fill="#030303"/>
<ellipse cx="17.3918" cy="13.2238" rx="9.6142" ry="1.7502" fill="#D9D9D9"/>
<ellipse cx="17.5002" cy="23.447" rx="12.7647" ry="11.5534" fill="#030303"/>
<ellipse cx="17.3969" cy="23.4463" rx="9.36765" ry="8.49514" fill="#D9D9D9"/>
<ellipse cx="17.3969" cy="22.8517" rx="9.36765" ry="7.90049" fill="white"/>
<ellipse cx="4.83882" cy="2.27519" rx="4.83882" ry="2.27519" transform="matrix(0.902768 -0.430128 0.573249 0.819381 18.9409 26.0801)" fill="black"/>
<ellipse cx="4.83882" cy="2.27519" rx="4.83882" ry="2.27519" transform="matrix(0.902768 0.430128 -0.573249 0.819381 7.34375 21.9175)" fill="black"/>
<ellipse cx="14.5146" cy="19.454" rx="1.54412" ry="1.27427" fill="black"/>
<ellipse cx="20.485" cy="19.454" rx="1.54412" ry="1.27427" fill="black"/>
<rect width="2.83128" height="2.83128" transform="matrix(0.771281 -0.636494 0.771281 0.636494 15.0293 23.3799)" fill="#EB9719"/>
</svg>
