<svg width="95" height="59" viewBox="0 0 95 59" fill="none" xmlns="http://www.w3.org/2000/svg">
<mask id="path-1-inside-1_168_4712" fill="white">
<path d="M24 1H70V43H24V1Z"/>
</mask>
<path d="M24 1H70V43H24V1Z" fill="#D9D9D9"/>
<path d="M24 3H70V-1H24V3Z" fill="black" mask="url(#path-1-inside-1_168_4712)"/>
<path d="M24.1526 2L34.3785 19.354H13.9266L24.1526 2Z" fill="#D9D9D9" stroke="black" stroke-width="2" stroke-linejoin="round"/>
<path d="M69.774 2L79.9999 19.354H59.548L69.774 2Z" fill="#D9D9D9" stroke="black" stroke-width="2"/>
<rect y="31.3464" width="94.4633" height="5.07921" fill="#040404"/>
<rect x="1.53674" y="17.1089" width="92.4633" height="27.9109" fill="#D9D9D9" stroke="black" stroke-width="2"/>
<path d="M32.8136 47.7129C32.8136 53.4422 28.4086 58 23.0791 58C17.7496 58 13.3447 53.4422 13.3447 47.7129C13.3447 41.9836 17.7496 37.4258 23.0791 37.4258C28.4086 37.4258 32.8136 41.9836 32.8136 47.7129Z" fill="#979191" stroke="black" stroke-width="2"/>
<path d="M77.3616 47.7129C77.3616 53.4422 72.9566 58 67.6271 58C62.2976 58 57.8926 53.4422 57.8926 47.7129C57.8926 41.9836 62.2976 37.4258 67.6271 37.4258C72.9566 37.4258 77.3616 41.9836 77.3616 47.7129Z" fill="#979191" stroke="black" stroke-width="2"/>
<rect x="0.536743" y="25.1387" width="93.3898" height="2.82178" fill="black"/>
</svg>
