<svg width="62" height="65" viewBox="0 0 62 65" fill="none" xmlns="http://www.w3.org/2000/svg">
<ellipse cx="31" cy="24.3779" rx="31" ry="5.59788" fill="black"/>
<path d="M30.4259 0L43.8493 20.5857H17.0025L30.4259 0Z" fill="#030303"/>
<ellipse cx="30.8086" cy="24.5585" rx="17.0309" ry="3.25038" fill="#D9D9D9"/>
<ellipse cx="31" cy="43.5437" rx="22.6118" ry="21.4563" fill="#030303"/>
<ellipse cx="30.8176" cy="43.5437" rx="16.5941" ry="15.7767" fill="#D9D9D9"/>
<ellipse cx="30.8176" cy="42.4393" rx="16.5941" ry="14.6723" fill="white"/>
<ellipse cx="8.64986" cy="4.16227" rx="8.64986" ry="4.16227" transform="matrix(0.894603 -0.446862 0.555078 0.831798 33.5529 48.4344)" fill="black"/>
<ellipse cx="8.64986" cy="4.16227" rx="8.64986" ry="4.16227" transform="matrix(0.894603 0.446862 -0.555078 0.831798 13.009 40.7039)" fill="black"/>
<ellipse cx="25.7117" cy="36.1286" rx="2.73529" ry="2.3665" fill="black"/>
<ellipse cx="36.2882" cy="36.1286" rx="2.73529" ry="2.3665" fill="black"/>
<rect width="5.11511" height="5.11511" transform="matrix(0.756248 -0.654286 0.756248 0.654286 26.6235 43.4196)" fill="#EB9719"/>
</svg>
