<svg width="60" height="60" viewBox="0 0 60 60" fill="none" xmlns="http://www.w3.org/2000/svg">
<g filter="url(#filter0_d_36_910)">
<path d="M40.5264 37.8419V35.2103C40.5264 33.8144 39.9719 32.4757 38.9848 31.4887C37.9978 30.5017 36.6591 29.9471 35.2632 29.9471H24.7369C23.341 29.9471 22.0023 30.5017 21.0153 31.4887C20.0283 32.4757 19.4738 33.8144 19.4738 35.2103V37.8419" stroke="#141313" stroke-width="2" stroke-linecap="round" stroke-linejoin="round"/>
<path d="M30.0001 24.6846C32.9069 24.6846 35.2633 22.3282 35.2633 19.4215C35.2633 16.5147 32.9069 14.1583 30.0001 14.1583C27.0933 14.1583 24.7369 16.5147 24.7369 19.4215C24.7369 22.3282 27.0933 24.6846 30.0001 24.6846Z" stroke="#141313" stroke-width="2" stroke-linecap="round" stroke-linejoin="round"/>
<circle cx="30" cy="26" r="25" stroke="#141313" stroke-width="2"/>
</g>
<defs>
<filter id="filter0_d_36_910" x="0" y="0" width="60" height="60" filterUnits="userSpaceOnUse" color-interpolation-filters="sRGB">
<feFlood flood-opacity="0" result="BackgroundImageFix"/>
<feColorMatrix in="SourceAlpha" type="matrix" values="0 0 0 0 0 0 0 0 0 0 0 0 0 0 0 0 0 0 127 0" result="hardAlpha"/>
<feOffset dy="4"/>
<feGaussianBlur stdDeviation="2"/>
<feComposite in2="hardAlpha" operator="out"/>
<feColorMatrix type="matrix" values="0 0 0 0 0 0 0 0 0 0 0 0 0 0 0 0 0 0 0.25 0"/>
<feBlend mode="normal" in2="BackgroundImageFix" result="effect1_dropShadow_36_910"/>
<feBlend mode="normal" in="SourceGraphic" in2="effect1_dropShadow_36_910" result="shape"/>
</filter>
</defs>
</svg>
