<svg width="25" height="25" viewBox="0 0 25 25" fill="none" xmlns="http://www.w3.org/2000/svg">
<path d="M19.7917 11.4584H5.20833C4.05774 11.4584 3.125 12.3911 3.125 13.5417V20.8334C3.125 21.984 4.05774 22.9167 5.20833 22.9167H19.7917C20.9423 22.9167 21.875 21.984 21.875 20.8334V13.5417C21.875 12.3911 20.9423 11.4584 19.7917 11.4584Z" stroke="black" stroke-opacity="0.4" stroke-width="2" stroke-linecap="round" stroke-linejoin="round"/>
<path d="M7.29163 11.4584V7.29171C7.29163 5.91037 7.84036 4.58561 8.81711 3.60886C9.79386 2.63211 11.1186 2.08337 12.5 2.08337C13.8813 2.08337 15.2061 2.63211 16.1828 3.60886C17.1596 4.58561 17.7083 5.91037 17.7083 7.29171V11.4584" stroke="black" stroke-opacity="0.4" stroke-width="2" stroke-linecap="round" stroke-linejoin="round"/>
</svg>
