<svg width="23" height="28" viewBox="0 0 23 28" fill="none" xmlns="http://www.w3.org/2000/svg">
<rect width="23" height="28" fill="white"/>
<path d="M18.2083 12.8334H4.79167C3.73312 12.8334 2.875 13.878 2.875 15.1667V23.3334C2.875 24.622 3.73312 25.6667 4.79167 25.6667H18.2083C19.2669 25.6667 20.125 24.622 20.125 23.3334V15.1667C20.125 13.878 19.2669 12.8334 18.2083 12.8334Z" stroke="black" stroke-opacity="0.4" stroke-width="2" stroke-linecap="round" stroke-linejoin="round"/>
<path d="M6.70825 12.8334V8.16671C6.70825 6.61961 7.21309 5.13588 8.1117 4.04192C9.01031 2.94796 10.2291 2.33337 11.4999 2.33337C12.7707 2.33337 13.9895 2.94796 14.8881 4.04192C15.7868 5.13588 16.2916 6.61961 16.2916 8.16671V12.8334" stroke="black" stroke-opacity="0.4" stroke-width="2" stroke-linecap="round" stroke-linejoin="round"/>
</svg>
