<svg width="25" height="24" viewBox="0 0 25 24" fill="none" xmlns="http://www.w3.org/2000/svg">
<path d="M17.7083 21V19C17.7083 17.9391 17.2693 16.9217 16.4879 16.1716C15.7065 15.4214 14.6467 15 13.5416 15H5.20829C4.10322 15 3.04342 15.4214 2.26201 16.1716C1.48061 16.9217 1.04163 17.9391 1.04163 19V21" stroke="black" stroke-opacity="0.4" stroke-width="2" stroke-linecap="round" stroke-linejoin="round"/>
<path d="M9.37504 11C11.6762 11 13.5417 9.20914 13.5417 7C13.5417 4.79086 11.6762 3 9.37504 3C7.07385 3 5.20837 4.79086 5.20837 7C5.20837 9.20914 7.07385 11 9.37504 11Z" stroke="black" stroke-opacity="0.4" stroke-width="2" stroke-linecap="round" stroke-linejoin="round"/>
<path d="M23.9584 21V19C23.9577 18.1137 23.6504 17.2528 23.0848 16.5523C22.5192 15.8519 21.7273 15.3516 20.8334 15.13" stroke="black" stroke-opacity="0.4" stroke-width="2" stroke-linecap="round" stroke-linejoin="round"/>
<path d="M16.6666 3.13C17.5629 3.35031 18.3573 3.85071 18.9246 4.55232C19.4919 5.25392 19.7998 6.11683 19.7998 7.00501C19.7998 7.89318 19.4919 8.75609 18.9246 9.45769C18.3573 10.1593 17.5629 10.6597 16.6666 10.88" stroke="black" stroke-opacity="0.4" stroke-width="2" stroke-linecap="round" stroke-linejoin="round"/>
</svg>
