<svg width="27" height="27" viewBox="0 0 27 27" fill="none" xmlns="http://www.w3.org/2000/svg">
<path d="M25.7344 6.75H25.3125V4.21875C25.3125 1.85625 20.0813 0 13.5 0C6.91875 0 1.6875 1.85625 1.6875 4.21875V6.75H1.26562C0.566895 6.75 0 7.31637 0 8.01562V12.2344C0 12.9331 0.566895 13.5 1.26562 13.5H1.6875V21.9375C1.6875 22.8693 2.44318 23.625 3.375 23.625V25.3125C3.375 26.2443 4.13068 27 5.0625 27H6.75C7.68182 27 8.4375 26.2443 8.4375 25.3125V23.625H18.5625V25.3125C18.5625 26.2443 19.3182 27 20.25 27H21.9375C22.8693 27 23.625 26.2443 23.625 25.3125V23.625H23.9625C24.8063 23.625 25.3125 22.95 25.3125 22.275V13.5H25.7344C26.4331 13.5 27 12.9331 27 12.2344V8.01562C27 7.31637 26.4331 6.75 25.7344 6.75ZM8.4375 3.79688C8.4375 3.56379 8.62629 3.375 8.85938 3.375H18.1406C18.3737 3.375 18.5625 3.56379 18.5625 3.79688V4.64062C18.5625 4.87371 18.3737 5.0625 18.1406 5.0625H8.85938C8.62629 5.0625 8.4375 4.87371 8.4375 4.64062V3.79688ZM5.90625 21.0938C4.97443 21.0938 4.21875 20.3381 4.21875 19.4062C4.21875 18.4744 4.97443 17.7188 5.90625 17.7188C6.83807 17.7188 7.59375 18.4744 7.59375 19.4062C7.59375 20.3381 6.83807 21.0938 5.90625 21.0938ZM12.6563 15.1875H6.75C5.81818 15.1875 5.0625 14.4318 5.0625 13.5V8.4375C5.0625 7.50568 5.81818 6.75 6.75 6.75H12.6563V15.1875ZM14.3438 15.1875V6.75H20.25C21.1818 6.75 21.9375 7.50568 21.9375 8.4375V13.5C21.9375 14.4318 21.1818 15.1875 20.25 15.1875H14.3438ZM21.0938 21.0938C20.1619 21.0938 19.4062 20.3381 19.4062 19.4062C19.4062 18.4744 20.1619 17.7188 21.0938 17.7188C22.0256 17.7188 22.7812 18.4744 22.7812 19.4062C22.7812 20.3381 22.0256 21.0938 21.0938 21.0938Z" fill="#629ACE"/>
</svg>
