<svg width="22" height="22" viewBox="0 0 22 22" fill="none" xmlns="http://www.w3.org/2000/svg">
<path d="M1.375 20.3125C1.375 21.1768 1.98945 21.875 2.75 21.875H9.625V14.0625H1.375V20.3125ZM12.375 21.875H19.25C20.0105 21.875 20.625 21.1768 20.625 20.3125V14.0625H12.375V21.875ZM20.625 6.25H18.816C19.0824 5.65918 19.25 5.00488 19.25 4.29688C19.25 1.92871 17.5527 0 15.4688 0C13.6812 0 12.5254 1.04004 11.043 3.33496C9.56055 1.04004 8.40469 0 6.61719 0C4.5332 0 2.83594 1.92871 2.83594 4.29688C2.83594 5.00488 2.99922 5.65918 3.26992 6.25H1.375C0.614453 6.25 0 6.94824 0 7.8125V11.7188C0 12.1484 0.309375 12.5 0.6875 12.5H21.3125C21.6906 12.5 22 12.1484 22 11.7188V7.8125C22 6.94824 21.3855 6.25 20.625 6.25ZM6.61289 6.25C5.66328 6.25 4.89414 5.37598 4.89414 4.29688C4.89414 3.21777 5.66328 2.34375 6.61289 2.34375C7.46797 2.34375 8.09961 2.50488 10.3125 6.25H6.61289ZM15.4688 6.25H11.7691C13.9777 2.51465 14.5922 2.34375 15.4688 2.34375C16.4184 2.34375 17.1875 3.21777 17.1875 4.29688C17.1875 5.37598 16.4184 6.25 15.4688 6.25Z" fill="#999999"/>
</svg>
