<svg width="22" height="25" viewBox="0 0 22 25" fill="none" xmlns="http://www.w3.org/2000/svg">
<path d="M21.875 4.6875V17.1875C21.875 19.7175 18.866 21.875 15.5263 21.875L18.6015 24.3028C18.8918 24.5321 18.7286 25 18.3594 25H3.51562C3.14561 25 2.98379 24.5315 3.27358 24.3028L6.34873 21.875C3.01855 21.875 0 19.7243 0 17.1875V4.6875C0 2.09868 3.125 0 6.25 0H15.625C18.7988 0 21.875 2.09868 21.875 4.6875ZM9.76562 11.3281V5.85938C9.76562 5.21216 9.24097 4.6875 8.59375 4.6875H3.51562C2.86841 4.6875 2.34375 5.21216 2.34375 5.85938V11.3281C2.34375 11.9753 2.86841 12.5 3.51562 12.5H8.59375C9.24097 12.5 9.76562 11.9753 9.76562 11.3281ZM19.5312 11.3281V5.85938C19.5312 5.21216 19.0066 4.6875 18.3594 4.6875H13.2812C12.634 4.6875 12.1094 5.21216 12.1094 5.85938V11.3281C12.1094 11.9753 12.634 12.5 13.2812 12.5H18.3594C19.0066 12.5 19.5312 11.9753 19.5312 11.3281ZM17.1875 14.0625C15.8931 14.0625 14.8438 15.1118 14.8438 16.4062C14.8438 17.7007 15.8931 18.75 17.1875 18.75C18.4819 18.75 19.5312 17.7007 19.5312 16.4062C19.5312 15.1118 18.4819 14.0625 17.1875 14.0625ZM4.6875 14.0625C3.39307 14.0625 2.34375 15.1118 2.34375 16.4062C2.34375 17.7007 3.39307 18.75 4.6875 18.75C5.98193 18.75 7.03125 17.7007 7.03125 16.4062C7.03125 15.1118 5.98193 14.0625 4.6875 14.0625Z" fill="#629ACE"/>
</svg>
