<svg width="17" height="15" viewBox="0 0 17 15" fill="none" xmlns="http://www.w3.org/2000/svg">
<path d="M0 13.3929C0 14.2801 0.634549 15 1.41667 15H15.5833C16.3655 15 17 14.2801 17 13.3929V7.5H0V13.3929ZM5.66667 11.1161C5.66667 10.8951 5.82604 10.7143 6.02083 10.7143H10.0347C10.2295 10.7143 10.3889 10.8951 10.3889 11.1161V12.4554C10.3889 12.6763 10.2295 12.8571 10.0347 12.8571H6.02083C5.82604 12.8571 5.66667 12.6763 5.66667 12.4554V11.1161ZM1.88889 11.1161C1.88889 10.8951 2.04826 10.7143 2.24306 10.7143H4.36806C4.56285 10.7143 4.72222 10.8951 4.72222 11.1161V12.4554C4.72222 12.6763 4.56285 12.8571 4.36806 12.8571H2.24306C2.04826 12.8571 1.88889 12.6763 1.88889 12.4554V11.1161ZM17 1.60714V3.21429H0V1.60714C0 0.719866 0.634549 0 1.41667 0H15.5833C16.3655 0 17 0.719866 17 1.60714Z" fill="black"/>
</svg>
