<svg width="28" height="22" viewBox="0 0 28 22" fill="none" xmlns="http://www.w3.org/2000/svg">
<path d="M25.5885 8.49807L24.9328 6.88818L23.7703 4.03333C22.7722 1.58297 20.3916 0 17.7042 0H10.2958C7.609 0 5.22783 1.58297 4.22975 4.03333L3.06717 6.88818L2.4115 8.49807C1.0045 9.02344 0 10.3503 0 11.9167V14.6667C0 15.5902 0.359333 16.4238 0.933333 17.0689V20.1667C0.933333 21.179 1.76925 22 2.8 22H4.66667C5.69742 22 6.53333 21.179 6.53333 20.1667V18.3333H21.4667V20.1667C21.4667 21.179 22.3026 22 23.3333 22H25.2C26.2308 22 27.0667 21.179 27.0667 20.1667V17.0689C27.6407 16.4244 28 15.5908 28 14.6667V11.9167C28 10.3503 26.9955 9.02344 25.5885 8.49807ZM7.69592 5.39516C8.12117 4.3513 9.15075 3.66667 10.2958 3.66667H17.7042C18.8493 3.66667 19.8788 4.3513 20.3041 5.39516L21.4667 8.25H6.53333L7.69592 5.39516ZM4.66667 14.6552C3.54667 14.6552 2.8 13.9242 2.8 12.8276C2.8 11.731 3.54667 11 4.66667 11C5.78667 11 7.46667 12.6448 7.46667 13.7414C7.46667 14.838 5.78667 14.6552 4.66667 14.6552ZM23.3333 14.6552C22.2133 14.6552 20.5333 14.838 20.5333 13.7414C20.5333 12.6448 22.2133 11 23.3333 11C24.4533 11 25.2 11.731 25.2 12.8276C25.2 13.9242 24.4533 14.6552 23.3333 14.6552Z" fill="#629ACE"/>
</svg>
