<svg width="15" height="18" viewBox="0 0 15 18" fill="none" xmlns="http://www.w3.org/2000/svg">
<path d="M14.9991 10.6875C14.9991 14.727 11.6423 18 7.49955 18C3.35677 18 0 14.727 0 10.6875C0 7.03125 2.75104 4.00078 6.34577 3.46289V2.25H5.33622C5.09825 2.25 4.90355 2.06016 4.90355 1.82812V0.421875C4.90355 0.189844 5.09825 0 5.33622 0H9.66288C9.90085 0 10.0955 0.189844 10.0955 0.421875V1.82812C10.0955 2.06016 9.90085 2.25 9.66288 2.25H8.65333V3.46289C10.0054 3.6668 11.2385 4.22227 12.2481 5.03086L13.2396 4.06406C13.4091 3.89883 13.6831 3.89883 13.8525 4.06406L14.8729 5.05898C15.0424 5.22422 15.0424 5.49141 14.8729 5.65664L13.8129 6.69023L13.7912 6.71133C14.5556 7.85039 14.9991 9.21797 14.9991 10.6875ZM8.65333 11.9531V6.62695C8.65333 6.39492 8.45863 6.20508 8.22066 6.20508H6.77844C6.54047 6.20508 6.34577 6.39492 6.34577 6.62695V11.9531C6.34577 12.1852 6.54047 12.375 6.77844 12.375H8.22066C8.45863 12.375 8.65333 12.1852 8.65333 11.9531Z" fill="white"/>
</svg>
