<svg width="18" height="18" viewBox="0 0 18 18" fill="none" xmlns="http://www.w3.org/2000/svg">
<path d="M7.86621 4.59668L5.43585 0.546328C5.33592 0.379709 5.19454 0.241811 5.02548 0.146069C4.85642 0.0503259 4.66545 2.38544e-06 4.47116 0H0.563531C0.108256 0 -0.158229 0.512227 0.102631 0.885234L4.01448 6.47367C5.05932 5.49738 6.38824 4.8273 7.86621 4.59668ZM17.4365 0H13.5288C13.1337 0 12.7674 0.207422 12.5642 0.546328L10.1338 4.59668C11.6118 4.8273 12.9407 5.49738 13.9855 6.47332L17.8974 0.885234C18.1582 0.512227 17.8917 0 17.4365 0ZM9 5.625C5.5828 5.625 2.81248 8.39531 2.81248 11.8125C2.81248 15.2297 5.5828 18 9 18C12.4172 18 15.1875 15.2297 15.1875 11.8125C15.1875 8.39531 12.4172 5.625 9 5.625ZM12.2527 11.1537L10.9192 12.453L11.2345 14.2889C11.2908 14.618 10.9441 14.8693 10.6492 14.7139L9 13.8473L7.35117 14.7139C7.05585 14.8704 6.70956 14.6176 6.76581 14.2889L7.08117 12.453L5.74769 11.1537C5.50792 10.9202 5.64046 10.5128 5.97093 10.465L7.81418 10.1964L8.63789 8.52574C8.71207 8.37527 8.85551 8.30109 8.9993 8.30109C9.14379 8.30109 9.28828 8.37633 9.36246 8.52574L10.1862 10.1964L12.0294 10.465C12.3599 10.5128 12.4924 10.9202 12.2527 11.1537Z" fill="white"/>
</svg>
