<svg width="16" height="18" viewBox="0 0 16 18" fill="none" xmlns="http://www.w3.org/2000/svg">
<path d="M0 7.71429H6.85714V0H0V7.71429ZM2.28571 2.57143H4.57143V5.14286H2.28571V2.57143ZM9.14286 0V7.71429H16V0H9.14286ZM13.7143 5.14286H11.4286V2.57143H13.7143V5.14286ZM0 18H6.85714V10.2857H0V18ZM2.28571 12.8571H4.57143V15.4286H2.28571V12.8571ZM14.8571 10.2857H16V15.4286H12.5714V14.1429H11.4286V18H9.14286V10.2857H12.5714V11.5714H14.8571V10.2857ZM14.8571 16.7143H16V18H14.8571V16.7143ZM12.5714 16.7143H13.7143V18H12.5714V16.7143Z" fill="black"/>
</svg>
