<svg width="24" height="28" viewBox="0 0 24 28" fill="none" xmlns="http://www.w3.org/2000/svg">
<path d="M22.9993 20.466V24.38C23.0006 24.7434 22.9375 25.1031 22.814 25.436C22.6906 25.7689 22.5096 26.0678 22.2826 26.3134C22.0556 26.559 21.7876 26.7461 21.4958 26.8625C21.2039 26.9789 20.8947 27.0221 20.5879 26.9894C17.1841 26.5532 13.9145 25.1813 11.0418 22.984C8.36914 20.9809 6.10319 18.3083 4.40487 15.1559C2.53545 11.7523 1.37207 7.8771 1.00898 3.84433C0.981336 3.48355 1.01769 3.11992 1.11572 2.77661C1.21376 2.43331 1.37132 2.11783 1.57839 1.85029C1.78546 1.58274 2.03749 1.36897 2.31843 1.2226C2.59938 1.07623 2.90309 1.00047 3.21023 1.00013H6.52869C7.06551 0.993895 7.58594 1.21811 7.99297 1.63098C8.4 2.04386 8.66586 2.61721 8.74099 3.24418C8.88106 4.49676 9.14081 5.72664 9.5153 6.91034C9.66413 7.37732 9.69634 7.88483 9.60812 8.37273C9.51989 8.86064 9.31494 9.30849 9.01753 9.66322L7.61272 11.3202C9.18739 14.5865 11.4803 17.291 14.2496 19.1483L15.6545 17.4913C15.9552 17.1405 16.3349 16.8988 16.7486 16.7947C17.1622 16.6907 17.5925 16.7287 17.9884 16.9042C18.992 17.3459 20.0348 17.6523 21.0967 17.8175C21.6341 17.9069 22.1248 18.2261 22.4756 18.7145C22.8264 19.2028 23.0128 19.8261 22.9993 20.466Z" stroke="#C3C9D2" stroke-width="2" stroke-linecap="round" stroke-linejoin="round"/>
</svg>
