<svg width="11" height="12" viewBox="0 0 11 12" fill="none" xmlns="http://www.w3.org/2000/svg">
<path d="M1.01126 2.01988L1.04594 1.00165C1.06062 0.570506 1.39543 0.2155 1.79265 0.209891L10.051 0.0433376C10.4504 0.0353929 10.7615 0.377552 10.7448 0.806443L10.4413 9.71824C10.4266 10.1494 10.0918 10.5044 9.69454 10.51L8.75122 10.5288C8.34755 10.5368 8.03475 10.1832 8.05809 9.74731L8.36281 4.35333L2.03227 11.0658C1.73932 11.3764 1.28465 11.3854 1.01247 11.086L0.357595 10.3657C0.0854129 10.0663 0.102127 9.57554 0.395085 9.26491L6.72562 2.55249L1.72201 2.78265C1.31583 2.80218 0.994215 2.45794 1.01126 2.01988Z" fill="black"/>
</svg>
