<svg width="12" height="12" viewBox="0 0 12 12" fill="none" xmlns="http://www.w3.org/2000/svg">
<path d="M10.5454 9.96589L10.5106 10.9841C10.4959 11.4153 10.1611 11.7702 9.76385 11.7758L1.50548 11.9417C1.10606 11.9496 0.795016 11.6074 0.811776 11.1785L1.11591 2.26675C1.13063 1.83561 1.46546 1.48063 1.86268 1.47505L2.806 1.45637C3.20967 1.44838 3.52245 1.80198 3.49908 2.23788L3.19398 7.63183L9.52499 0.919932C9.81797 0.609326 10.2726 0.60032 10.5448 0.899732L11.1996 1.62012C11.4718 1.91953 11.455 2.4103 11.162 2.72091L4.83104 9.43281L9.83467 9.20307C10.2409 9.18356 10.5624 9.52783 10.5454 9.96589Z" fill="black"/>
</svg>
