<svg width="22" height="15" viewBox="0 0 22 15" fill="none" xmlns="http://www.w3.org/2000/svg">
<path d="M20.1053 5.79414L19.5901 4.69648L18.6766 2.75C17.8924 1.0793 16.022 0 13.9104 0H8.08958C5.9785 0 4.10758 1.0793 3.32338 2.75L2.40992 4.69648L1.89475 5.79414C0.78925 6.15234 0 7.05703 0 8.125V10C0 10.6297 0.282333 11.198 0.733333 11.6379V13.75C0.733333 14.4402 1.39013 15 2.2 15H3.66667C4.47654 15 5.13333 14.4402 5.13333 13.75V12.5H16.8667V13.75C16.8667 14.4402 17.5235 15 18.3333 15H19.8C20.6099 15 21.2667 14.4402 21.2667 13.75V11.6379C21.7177 11.1984 22 10.6301 22 10V8.125C22 7.05703 21.2108 6.15234 20.1053 5.79414ZM6.04679 3.67852C6.38092 2.9668 7.18988 2.5 8.08958 2.5H13.9104C14.8101 2.5 15.6191 2.9668 15.9532 3.67852L16.8667 5.625H5.13333L6.04679 3.67852ZM3.66667 9.99219C2.78667 9.99219 2.2 9.49375 2.2 8.74609C2.2 7.99844 2.78667 7.5 3.66667 7.5C4.54667 7.5 5.86667 8.62148 5.86667 9.36914C5.86667 10.1168 4.54667 9.99219 3.66667 9.99219ZM18.3333 9.99219C17.4533 9.99219 16.1333 10.1168 16.1333 9.36914C16.1333 8.62148 17.4533 7.5 18.3333 7.5C19.2133 7.5 19.8 7.99844 19.8 8.74609C19.8 9.49375 19.2133 9.99219 18.3333 9.99219Z" fill="white"/>
</svg>
