<svg width="22" height="25" viewBox="0 0 22 25" fill="none" xmlns="http://www.w3.org/2000/svg">
<path d="M2.59766 22.8027C2.63492 23.3978 2.89754 23.9562 3.33206 24.3644C3.76658 24.7727 4.34033 24.9999 4.93652 25H16.9385C17.5347 24.9999 18.1084 24.7727 18.5429 24.3644C18.9775 23.9562 19.2401 23.3978 19.2773 22.8027L20.3125 6.25001H1.5625L2.59766 22.8027ZM6.021 14.2188L10.3853 9.61622C10.4557 9.5401 10.5411 9.47936 10.6362 9.43783C10.7312 9.39629 10.8338 9.37485 10.9375 9.37485C11.0412 9.37485 11.1438 9.39629 11.2388 9.43783C11.3339 9.47936 11.4193 9.5401 11.4897 9.61622L15.854 14.2188C16.3462 14.7373 15.9976 15.625 15.3013 15.625H12.5V21.0938C12.5 21.301 12.4177 21.4997 12.2712 21.6462C12.1247 21.7927 11.926 21.875 11.7188 21.875H10.1562C9.94905 21.875 9.75034 21.7927 9.60382 21.6462C9.45731 21.4997 9.375 21.301 9.375 21.0938V15.625H6.57373C5.87744 15.625 5.52881 14.7373 6.021 14.2188ZM21.0938 1.56251H15.2344L14.7754 0.649423C14.6782 0.454215 14.5284 0.29001 14.3429 0.175281C14.1575 0.0605526 13.9437 -0.00014785 13.7256 8.5609e-06H8.14453C7.92694 -0.000827891 7.71352 0.0596463 7.52871 0.174503C7.34391 0.289359 7.19519 0.453951 7.09961 0.649423L6.64062 1.56251H0.78125C0.57405 1.56251 0.375336 1.64482 0.228823 1.79133C0.08231 1.93784 0 2.13656 0 2.34376L0 3.90626C0 4.11346 0.08231 4.31217 0.228823 4.45869C0.375336 4.6052 0.57405 4.68751 0.78125 4.68751H21.0938C21.301 4.68751 21.4997 4.6052 21.6462 4.45869C21.7927 4.31217 21.875 4.11346 21.875 3.90626V2.34376C21.875 2.13656 21.7927 1.93784 21.6462 1.79133C21.4997 1.64482 21.301 1.56251 21.0938 1.56251Z" fill="#629ACE"/>
</svg>
