<svg width="11" height="9" viewBox="0 0 11 9" fill="none" xmlns="http://www.w3.org/2000/svg">
<path d="M11 2.25V8.03571C11 8.56808 10.5381 9 9.96875 9H1.03125C0.461914 9 0 8.56808 0 8.03571V2.25C0 1.71763 0.461914 1.28571 1.03125 1.28571H2.92188L3.18613 0.624777C3.33652 0.249107 3.72109 0 4.15078 0H6.84707C7.27676 0 7.66133 0.249107 7.81172 0.624777L8.07812 1.28571H9.96875C10.5381 1.28571 11 1.71763 11 2.25ZM8.07812 5.14286C8.07812 3.81295 6.92227 2.73214 5.5 2.73214C4.07773 2.73214 2.92188 3.81295 2.92188 5.14286C2.92188 6.47277 4.07773 7.55357 5.5 7.55357C6.92227 7.55357 8.07812 6.47277 8.07812 5.14286ZM7.39062 5.14286C7.39062 6.11719 6.54199 6.91071 5.5 6.91071C4.45801 6.91071 3.60938 6.11719 3.60938 5.14286C3.60938 4.16853 4.45801 3.375 5.5 3.375C6.54199 3.375 7.39062 4.16853 7.39062 5.14286Z" fill="black"/>
</svg>
