<svg width="25" height="25" viewBox="0 0 25 25" fill="none" xmlns="http://www.w3.org/2000/svg">
<path d="M25 12.1094C25 18.7987 19.4031 24.2188 12.5 24.2188C5.59693 24.2188 0 18.7987 0 12.1094C0 5.42397 5.59693 0 12.5 0C19.4031 0 25 5.42397 25 12.1094ZM12.8354 4.00391C10.0886 4.00391 8.33669 5.12485 6.96099 7.11709C6.78276 7.3752 6.84239 7.72329 7.09783 7.91094L8.84677 9.19561C9.10912 9.38833 9.48291 9.34248 9.68674 9.09199C10.5871 7.98564 11.2045 7.34409 12.575 7.34409C13.6047 7.34409 14.8783 7.98608 14.8783 8.95337C14.8783 9.68462 14.2552 10.0602 13.2385 10.6124C12.0528 11.2562 10.4839 12.0577 10.4839 14.0625V14.2578C10.4839 14.5814 10.7547 14.8438 11.0887 14.8438H13.9113C14.2453 14.8438 14.5161 14.5814 14.5161 14.2578V14.1927C14.5161 12.803 18.709 12.7451 18.709 8.98438C18.709 6.15225 15.6765 4.00391 12.8354 4.00391ZM12.5 16.1133C11.2215 16.1133 10.1815 17.1208 10.1815 18.3594C10.1815 19.5979 11.2215 20.6055 12.5 20.6055C13.7785 20.6055 14.8185 19.5979 14.8185 18.3594C14.8185 17.1208 13.7785 16.1133 12.5 16.1133Z" fill="black" fill-opacity="0.4"/>
</svg>
