<svg width="20" height="15" viewBox="0 0 20 15" fill="none" xmlns="http://www.w3.org/2000/svg">
<path d="M7 7.5C7.79113 7.5 8.56448 7.28007 9.22228 6.86801C9.88008 6.45596 10.3928 5.87029 10.6955 5.18506C10.9983 4.49984 11.0775 3.74584 10.9231 3.01841C10.7688 2.29098 10.3878 1.6228 9.82843 1.09835C9.26902 0.573904 8.55628 0.216751 7.78036 0.0720569C7.00444 -0.0726377 6.20017 0.0016248 5.46927 0.285453C4.73836 0.569282 4.11365 1.04993 3.67412 1.66661C3.2346 2.2833 3 3.00832 3 3.75C3 4.74456 3.42143 5.69839 4.17157 6.40165C4.92172 7.10491 5.93913 7.5 7 7.5ZM10 9.375C10.0023 9.06185 10.0894 8.75438 10.2531 8.48145C10.1031 8.4668 9.95625 8.4375 9.8 8.4375H9.27812C8.56383 8.74632 7.78659 8.90624 7 8.90624C6.21341 8.90624 5.43617 8.74632 4.72188 8.4375H4.2C3.08617 8.43773 2.01802 8.85265 1.23043 9.59102C0.442827 10.3294 0.00024854 11.3308 0 12.375L0 13.5938C0 13.9667 0.158035 14.3244 0.43934 14.5881C0.720644 14.8518 1.10218 15 1.5 15H10.2781C10.0984 14.7161 10.0024 14.3926 10 14.0625V9.375ZM19 8.4375H18V6.09375C18 5.47215 17.7366 4.87601 17.2678 4.43647C16.7989 3.99693 16.163 3.75 15.5 3.75C14.837 3.75 14.2011 3.99693 13.7322 4.43647C13.2634 4.87601 13 5.47215 13 6.09375V8.4375H12C11.7348 8.4375 11.4804 8.53627 11.2929 8.71209C11.1054 8.8879 11 9.12636 11 9.375V14.0625C11 14.3111 11.1054 14.5496 11.2929 14.7254C11.4804 14.9012 11.7348 15 12 15H19C19.2652 15 19.5196 14.9012 19.7071 14.7254C19.8946 14.5496 20 14.3111 20 14.0625V9.375C20 9.12636 19.8946 8.8879 19.7071 8.71209C19.5196 8.53627 19.2652 8.4375 19 8.4375ZM15.5 12.6562C15.3022 12.6562 15.1089 12.6013 14.9444 12.4983C14.78 12.3952 14.6518 12.2488 14.5761 12.0775C14.5004 11.9062 14.4806 11.7177 14.5192 11.5359C14.5578 11.354 14.653 11.1869 14.7929 11.0558C14.9327 10.9247 15.1109 10.8354 15.3049 10.7993C15.4989 10.7631 15.7 10.7817 15.8827 10.8526C16.0654 10.9236 16.2216 11.0437 16.3315 11.1979C16.4414 11.3521 16.5 11.5333 16.5 11.7188C16.5 11.9674 16.3946 12.2058 16.2071 12.3817C16.0196 12.5575 15.7652 12.6562 15.5 12.6562ZM16.5 8.4375H14.5V6.09375C14.5 5.84511 14.6054 5.60665 14.7929 5.43084C14.9804 5.25502 15.2348 5.15625 15.5 5.15625C15.7652 5.15625 16.0196 5.25502 16.2071 5.43084C16.3946 5.60665 16.5 5.84511 16.5 6.09375V8.4375Z" fill="white"/>
</svg>
